<svg width="635" height="672" viewBox="0 0 635 672" fill="none" xmlns="http://www.w3.org/2000/svg">
<g clip-path="url(#clip0_101_22)">
<path d="M168.342 0C139.128 0 117.515 25.58 118.482 53.32C119.409 79.967 118.204 114.485 109.516 142.63C100.802 170.862 86.07 188.707 62 191V217C86.069 219.293 100.802 237.138 109.516 265.37C118.204 293.515 119.409 328.033 118.481 354.681C117.515 382.42 139.128 408 168.342 408H467.695C496.909 408 518.522 382.42 517.556 354.681C516.628 328.033 517.833 293.515 526.52 265.37C535.235 237.138 549.931 219.293 574 217V191C549.931 188.707 535.235 170.862 526.52 142.63C517.833 114.485 516.628 79.967 517.556 53.32C518.522 25.58 496.909 0 467.695 0H168.342ZM404.901 251.102C404.901 289.299 376.4 312.457 329.103 312.457H241.901C241.371 312.457 240.862 312.246 240.487 311.871C240.112 311.496 239.901 310.987 239.901 310.457V97.457C239.901 96.9266 240.112 96.4179 240.487 96.0428C240.862 95.6677 241.371 95.457 241.901 95.457H328.641C368.08 95.457 393.963 116.811 393.963 149.595C393.963 172.603 376.554 193.205 354.369 196.814V198.017C384.565 201.326 404.901 222.229 404.901 251.102ZM320.321 122.977H274.411V187.791H313.08C342.968 187.791 359.453 175.761 359.453 154.256C359.453 134.105 345.279 122.977 320.321 122.977ZM274.411 213.507V284.938H322.016C353.136 284.938 369.621 272.456 369.621 248.997C369.621 225.537 352.674 213.507 320.013 213.507H274.411V213.507Z" fill="black"/>
</g>
<path d="M63.6924 566.694H29.6987L29.516 548.966H58.6664C63.6619 548.966 67.835 548.265 71.1856 546.864C74.5362 545.463 77.0644 543.422 78.7702 540.742C80.5369 538.061 81.4203 534.802 81.4203 530.964C81.4203 526.7 80.5978 523.227 78.953 520.547C77.369 517.866 74.8713 515.917 71.4597 514.698C68.0482 513.419 63.7228 512.779 58.4837 512.779H37.8316V626H12.7019V492.95H58.4837C66.0378 492.95 72.7695 493.681 78.6788 495.143C84.649 496.544 89.7054 498.737 93.848 501.722C97.9906 504.707 101.128 508.454 103.26 512.962C105.453 517.47 106.55 522.831 106.55 529.045C106.55 534.528 105.271 539.584 102.712 544.214C100.214 548.783 96.3458 552.499 91.1066 555.363C85.9284 558.226 79.349 559.871 71.3684 560.297L63.6924 566.694ZM62.5958 626H22.2969L32.8057 606.262H62.5958C67.5913 606.262 71.7034 605.439 74.9322 603.794C78.2219 602.15 80.6587 599.896 82.2427 597.032C83.8875 594.108 84.71 590.757 84.71 586.98C84.71 582.838 83.9789 579.244 82.5168 576.197C81.1156 573.151 78.8616 570.806 75.7546 569.161C72.7086 567.516 68.6879 566.694 63.6924 566.694H37.5575L37.7403 548.966H71.0028L76.7598 555.82C84.4358 555.881 90.6802 557.404 95.4929 560.389C100.367 563.374 103.961 567.212 106.276 571.903C108.591 576.593 109.748 581.65 109.748 587.072C109.748 595.601 107.89 602.759 104.174 608.546C100.519 614.334 95.1578 618.69 88.091 621.614C81.0852 624.538 72.5868 626 62.5958 626ZM191.618 604.982V559.383C191.618 556.033 191.039 553.139 189.882 550.702C188.724 548.265 186.958 546.377 184.582 545.037C182.206 543.696 179.19 543.026 175.535 543.026C172.306 543.026 169.474 543.575 167.037 544.671C164.661 545.768 162.833 547.321 161.554 549.332C160.275 551.281 159.635 553.535 159.635 556.094H135.419C135.419 552.012 136.394 548.144 138.343 544.488C140.293 540.772 143.064 537.483 146.659 534.619C150.314 531.695 154.67 529.411 159.726 527.766C164.844 526.121 170.57 525.298 176.906 525.298C184.399 525.298 191.07 526.578 196.918 529.136C202.827 531.634 207.457 535.411 210.808 540.468C214.22 545.524 215.925 551.89 215.925 559.566V602.698C215.925 607.632 216.23 611.866 216.839 615.4C217.509 618.872 218.484 621.888 219.763 624.447V626H195.182C194.024 623.502 193.141 620.334 192.532 616.496C191.923 612.597 191.618 608.759 191.618 604.982ZM194.999 565.78L195.182 580.127H179.921C176.144 580.127 172.824 580.523 169.961 581.315C167.098 582.046 164.752 583.142 162.925 584.605C161.097 586.006 159.726 587.711 158.812 589.722C157.899 591.671 157.442 593.895 157.442 596.393C157.442 598.829 157.99 601.023 159.087 602.972C160.244 604.922 161.889 606.475 164.021 607.632C166.214 608.729 168.773 609.277 171.697 609.277C175.962 609.277 179.678 608.424 182.846 606.719C186.013 604.952 188.481 602.82 190.247 600.322C192.014 597.824 192.958 595.448 193.08 593.194L200.025 603.612C199.172 606.109 197.893 608.759 196.187 611.562C194.481 614.364 192.288 616.984 189.608 619.421C186.927 621.857 183.698 623.868 179.921 625.452C176.144 627.036 171.758 627.828 166.763 627.828C160.366 627.828 154.639 626.548 149.583 623.99C144.527 621.431 140.536 617.928 137.612 613.481C134.688 609.034 133.226 603.977 133.226 598.312C133.226 593.072 134.201 588.443 136.15 584.422C138.099 580.401 140.993 577.02 144.831 574.278C148.669 571.476 153.421 569.374 159.087 567.973C164.813 566.511 171.362 565.78 178.733 565.78H194.999ZM269.284 485.548V626H245.16V485.548H269.284ZM331.241 527.126L288.2 575.466L264.898 599.134L257.222 580.401L275.224 557.739L302.09 527.126H331.241ZM306.568 626L275.955 579.944L292.038 564.318L334.53 626H306.568ZM398.307 527.126V544.488H341.651V527.126H398.307ZM356.82 502.819H381.036V597.489C381.036 600.413 381.432 602.667 382.224 604.251C383.016 605.835 384.204 606.901 385.788 607.45C387.372 607.998 389.26 608.272 391.453 608.272C393.037 608.272 394.499 608.181 395.839 607.998C397.18 607.815 398.307 607.632 399.221 607.45L399.312 625.543C397.302 626.213 395.017 626.762 392.458 627.188C389.961 627.614 387.128 627.828 383.96 627.828C378.538 627.828 373.786 626.914 369.705 625.086C365.623 623.198 362.455 620.182 360.201 616.039C357.947 611.836 356.82 606.292 356.82 599.408V502.819ZM447.462 527.126V626H423.246V527.126H447.462ZM421.602 501.265C421.602 497.671 422.82 494.686 425.257 492.31C427.755 489.934 431.105 488.746 435.309 488.746C439.512 488.746 442.832 489.934 445.269 492.31C447.767 494.686 449.016 497.671 449.016 501.265C449.016 504.799 447.767 507.753 445.269 510.129C442.832 512.505 439.512 513.693 435.309 513.693C431.105 513.693 427.755 512.505 425.257 510.129C422.82 507.753 421.602 504.799 421.602 501.265ZM509.594 626H485.287V517.988C485.287 510.556 486.718 504.311 489.582 499.255C492.445 494.138 496.526 490.269 501.827 487.65C507.127 485.03 513.371 483.72 520.56 483.72C522.936 483.72 525.19 483.872 527.322 484.177C529.515 484.482 531.678 484.908 533.81 485.456L533.353 503.824C532.195 503.519 530.916 503.306 529.515 503.184C528.175 503.062 526.682 503.002 525.037 503.002C521.748 503.002 518.945 503.58 516.63 504.738C514.315 505.895 512.549 507.601 511.33 509.855C510.173 512.048 509.594 514.759 509.594 517.988V626ZM529.606 527.126V544.488H470.392V527.126H529.606ZM580.955 615.034L607.455 527.126H633.316L593.657 640.986C592.743 643.423 591.555 646.073 590.093 648.937C588.692 651.8 586.803 654.511 584.427 657.069C582.052 659.689 579.066 661.821 575.472 663.466C571.939 665.111 567.644 665.933 562.587 665.933C560.394 665.933 558.445 665.781 556.739 665.476C555.033 665.172 553.236 664.776 551.348 664.289V646.195C551.957 646.256 552.657 646.287 553.449 646.287C554.302 646.347 555.033 646.378 555.643 646.378C559.176 646.378 562.1 645.951 564.415 645.099C566.73 644.307 568.588 642.997 569.989 641.169C571.451 639.403 572.67 637.088 573.645 634.224L580.955 615.034ZM567.888 527.126L590.276 599.956L594.205 625.452L577.574 628.467L541.844 527.126H567.888Z" fill="black"/>
<defs>
<clipPath id="clip0_101_22">
<rect width="512" height="408" fill="white" transform="translate(62)"/>
</clipPath>
</defs>
</svg>
